<?xml version="1.0" encoding="UTF-8"?>
<svg version="1.1" viewBox="0 0 1600 1600" width="512" height="512" xmlns="http://www.w3.org/2000/svg">
<path transform="translate(0)" d="m0 0h1600v1600h-1600z" fill="#FDFCFC"/>
<path transform="translate(226,196)" d="m0 0h775l23 2 26 3 32 6 37 11 25 9 25 12 25 13 23 14 18 14 14 11 14 12 10 9 11 11 7 8 9 10 8 10 15 20 14 22 15 26 4 8 1 8-4 8-9 10-9 6-10 5-11 3-17 1-14-1-38-9-41-12-38-10-32-8-29-6-41-6-24-1h-41l-26 1-38 5-30 6-26 7-24 8-29 12-31 16-16 10-19 13-28 24-13 12-9 10-12 15-9 14-13 23-10 25-5 18-4 24-1 27 2 23 5 21 6 18 10 21 12 18 11 14 7 7 7 8 12 11 13 10 15 10 22 13 22 12 36 17 71 28 25 9 2 3 3-1 40 14 43 16 42 17 35 15 32 16 24 14 16 11 10 8 10 9 7 6 7 8 12 15 11 18 9 19 8 22 5 23v44l-4 20-6 17-8 16-12 19-9 10-7 8-9 9-13 10-13 9-18 11-26 12-24 8-33 8-21 3-20 2-22 2h-21l-28-2-31-4-19-4-26-7-17-6-21-9-19-9-15-9-15-10-12-9-14-11-15-13-16-15-9-10-12-15-12-17-11-15-13-22-17-32-16-35-9-24-2-5v-3l-11 2h-11v40l-1 17 1 3v41l-2 129-3 16-8 16-9 9-12 6-4 1h-13l-26-6-29-8-20-7-15-6-24-11-24-14-22-14-16-12-13-11-14-12-10-9-14-14-9-11-12-14-13-18-17-26-10-18-13-26-10-26-8-25-7-29-6-38-2-26z" fill="#F56822"/>
<path transform="translate(226,196)" d="m0 0h775l23 2 26 3 32 6 37 11 25 9 25 12 25 13 23 14 18 14 14 11 14 12 10 9 11 11 7 8 9 10 8 10 15 20 14 22 15 26 4 8 1 8-4 8-9 10-9 6-10 5-11 3-17 1-14-1-38-9-41-12-38-10-32-8-29-6-41-6-24-1h-41l-26 1-38 5-30 6-26 7-24 8-29 12-31 16-16 10-19 13-28 24-6 5-2-1v-2l-2-1 15-12 13-10 17-13 11-8 10-8 16-12 8-7 7-4 15-11 8-7 5-7 3-8 5-7h2l2-4 15-14 5-5h2l2-4 3-3h2l2-4 6-5 7-8 16-20 11-16 1-2h2l2-5 2-3h2l2-5 8-10 11-14 8-10 8-12 5-9 1-3-8 12-10 14-11 15-14 18-8 10-11 13-7 9-11 13-7 8-12 13-14 15-7 7-8 7-26 26-4 5-8 7-16 15-14 11-21 16-14 10-16 13-16 12-10 8-18 12-23 14-14 8-11 6-25 14-22 12-23 11-27 12-31 13-23 9-9 4-21 6-28 9-44 12-18 5-17 3-1 1-19 3-35 6-46 6-19 2h-9z" fill="#FBA21B"/>
<path transform="translate(1010,437)" d="m0 0h48l20 1 30 5 23 6 21 7 25 12 22 13 17 12 13 11 14 12 16 16 7 8 12 14 13 18 12 19 9 16 12 23 13 29 17 40v2h40v260l-5-5-16-15-13-11-13-10-27-18-24-14-24-13-21-10-33-14-31-12-38-14-38-12-43-15-47-16-30-11-40-16-16-7-22-12-18-10-20-13-11-9-10-8-12-11-10-12-8-11-11-21-7-21-3-16v-21l4-18 7-19 8-16 9-14 8-10 8-9 8-7 14-11 19-12 22-11 26-9 28-7 19-2z" fill="#B42D40"/>
<path transform="translate(935,927)" d="m0 0 11 3 50 18 42 16 38 16 23 10 30 15 24 14 16 11 10 8 10 9 7 6 7 8 12 15 11 18 9 19 8 22 5 23v44l-4 20-6 17-8 16-12 19-9 10-7 8-9 9-13 10-13 9-18 11-26 12-24 8-33 8-21 3-20 2-22 2h-21l-28-2-31-4-19-4-26-7-15-5-1-1v-13l6-55 11-80 9-54 11-57 16-72 11-46 8-38z" fill="#B42D40"/>
<path transform="translate(226,693)" d="m0 0h15v1l-9 2-3 2 1 117h-2v2l5 2 22 12 27 15 26 16 21 13 24 15 16 11 17 12 13 10 12 9 14 11 13 11 11 9 8 8 8 7 17 17 8 7 38 38 7 8 9 10 9 11 9 10 13 15 9 11 11 13 9 12 6 9 1 3v41l-2 129-3 16-8 16-9 9-12 6-4 1h-13l-26-6-29-8-20-7-15-6-24-11-24-14-22-14-16-12-13-11-14-12-10-9-14-14-9-11-12-14-13-18-17-26-10-18-13-26-10-26-8-25-7-29-6-38-2-26z" fill="#B42D40"/>
<path transform="translate(712,845)" d="m0 0h7l12 3 5 2 13 4 10 1 2 1 3 6 10 6 10 3 12 5 11 1 3-1 31 14 66 26 25 9 2 5-1 8-9 40-13 56-13 60-12 64-8 50-10 75-5 47-1 13-20-8-21-10-15-9-15-10-12-9-14-11-4-6-4-3-2-6h-2l-5-6-2-1-1 2-13-13-2-5-2-4h-2l-11-16-8-13-4-6v-6l-1-5 6-3v-5l-1-1-2-11v-7l-1-8v-16l-5-2-2-4-5-5 3-7h2v-5l1-5-1-4 3-4-2-4-3-2-1-4 4-9 1-2-5-1-5-4-4-2-3-5v-3l2-1 2-6-4-2v-2l-3-1-1-3-6-4-5-10 3-3-16 4 1-7 2-2v-2l-11 1-1-3 3-3h2l1-4-4-1-2-4 2-3 8 1h3v-2l-3-3h2l-1-3 3-2v-4l-5 1-1-2 1-8v-7l-2-7-1-2h2v-9l-2-7-1-1v-7h2l-1-4 1-7-2-1v-10h2l1-5-3-7v-7h3v-2h2l-2-6-1-5 1-14 1-2-2-1 5-4 4 1-2-5v-6l3 3 1-2-2-12 1-7h3l3 6 2 1 1 3 6 4v3h2l1 5-3 2 1 1h8l-3-7-2-5v-4l4 1 1 4 3 1v2h3v-2l12 2 1-7 3-5-1-11z" fill="#FBA21B"/>
<path transform="translate(1010,437)" d="m0 0h48l20 1 30 5 9 3-2 5-15 31-15 33-11 24-16 36-11 25-23 61-8 20-13 35-15 43-3 9-30-11-20-9-22-12-18-10-20-13-11-9-10-8-12-11-10-12-8-11-11-21-7-21-3-16v-21l4-18 7-19 8-16 9-14 8-10 8-9 8-7 14-11 19-12 22-11 26-9 28-7 19-2z" fill="#F56822"/>
<path transform="translate(1216,267)" d="m0 0 5 2 18 14 16 13 15 13 14 14 7 8 9 10 8 10 15 20 14 22 15 26 4 8 1 8-4 8-9 10-9 6-10 5-11 3-17 1-14-1-38-9-41-12-38-10-32-8-7-2 8-17 13-23 12-23 10-18 12-21 14-25 9-15z" fill="#B42D40"/>
<path transform="translate(968,172)" d="m0 0h20l24 3 18 3 4 2h1l11 1 9 1v1h-10l-1 1h9l8 1v-1l11 1 21 5 11 4 14 7 3 3v3l-7 2 13 7 23 7 9 2v-3l9 1 18 5 8 4 4 5-1 5-3 3 5 5 9 7 1 3h-3l-27-15-30-15-27-10-29-9-20-5-30-5-27-3-15-1h-594l-181-1v510h-1l-1-393-2-16-1-45v-47l-1-10 4-5h130l30-1 38-2 43-1 20-1 32-3 33-1 1-2 39-2 41-1h44l92 1h37v1h46l82-2 29-2v-1z" fill="#FEFBF3"/>
<path transform="translate(999,414)" d="m0 0h41l24 1 41 6 34 7 8 2-3 4 7 6 9 7v3l-2 1-20 1-22-6-24-5-14-2-20-1h-48l-27 1-25 3-34 10-18 7-20 10-27 18-1-1v-7l-6 2h-7l-3-2-8 1-18 4-19 4-7 4-18 4-8 5-5 4-8 4-11 8-8 7-7 8-8 16-9 12-8 9h-2l-2 4-4 5-6 11-3 6-3 15-5 18-5 27-3 6-4 7-1 3-1 21 1 14 5 12h4l4-2 3 3 3 9 2 7v11l-4 7v8l5 7 2 8-2 1-8-13-8-17-7-21-4-18-2-23 1-27 4-24 6-21 11-26 14-24 10-14 11-13 14-15 14-12 10-9 14-11 15-10 13-8 26-14 17-8 26-10 24-8 34-8 23-4 31-4z" fill="#FEFBF4"/>
<path transform="translate(935,927)" d="m0 0 11 3 14 5v2h-5l3 1v2l-8 1-5 5-1 4-2 9h-2v3h-2v6l-1 7-1 5-3 16-4 12-2 9v8l-4 7-3 10-1 10-2 6-1 6-3 14-3 10 2 1-1 2 2 1h-3l1 6 2 1v13h2v10l-2 4v11l-3 1-2 5v5l1 3-2 7h-2v5l2 1v3h-2v2l3 1-1 3-3 1-1 5-1 11 1 3v7h-2v7l-2 13-2 5h-3l2 2 1 3-3 4 2 1-2 9v12 3l-1 10 1 6v9l-2 20-2 5 3 8v7l1 4-2 1v2l3 2-3 1 1 2-2 1v4l4 4 10 4h2l1 3-2 1 3 3-9-1-25-7-12-4-1-1v-13l6-55 11-80 9-54 11-57 16-72 11-46 8-38z" fill="#970B2D"/>
<path transform="translate(1091,443)" d="m0 0 13 1 9 2h4l-2 5-15 31-15 33-11 24-16 36-11 25-23 61-8 20-13 35-15 43-3 9-11-4 1-2h3l2-6 7-13 3-6 5-14 4-9 6-22 8-16 2-3 3-9 3-6 3-15 7-24 9-27h2l2-9 8-16 7-20 5-13 1-11 1-6v-20l-2-6 1-9-1-7-1-2v-9l-1-7 5-7 13-4 9-1z" fill="#FBA11B"/>
<path transform="translate(888,189)" d="m0 0h30l61 2 17 1 8 2 12 1v2h-609l-122-1v-1l67-2 306-2h55l87-1h59z" fill="#FEF6DD"/>
<path transform="translate(983,246)" d="m0 0 1 2-6 9-6 11-10 13-9 11-8 10-6 9h-2l-2 5-2 3h-2l-2 5-12 17-11 13-7 8-3 4h-2l-1 3-8 7-4 5-8 7-8 8-7 6-8 10-3 8-7 9-11 9-14 10-5 3-12 10-14 10-11 9-14 10-10 8-27 21-21 14-17 10-10 6-2-1 19-12 12-8 11-8 28-22 17-13 19-14 13-10 13-11 15-14 7-6 7-8 27-27 8-7 9-9 7-8 16-17 9-11 13-16 11-13 12-16 11-14 10-14 14-20z" fill="#F56722"/>
<path transform="translate(758,845)" d="m0 0 11 6 18 10 16 8 18 5 18 8 24 6 18 8 14 4 12 3 14 6 6 5 5 6 5 3 5 2 2 3-4 1-5-1-2 2-1-4-36-13-47-19-19-8-30-14-19-10-22-13-3-3z" fill="#FEFBF2"/>
<path transform="translate(630,1079)" d="m0 0 3 1 1 5-6 2-1 2 4 5h1v9l3 10v10l-2-4-1-1-5 7 2 2 4 2-9 15-7 1-5-4-2 1-1-5 1-15v-40l4-1h8z" fill="#FEFBF4"/>
<path transform="translate(1037,423)" d="m0 0 16 1 19 3 6 2 10 2 6 4v4l-2 1-14-1-20-1-44-1 2-1v-4h-27l-14-2-1-2 7-2 15-2h28z" fill="#FEF6DD"/>
<path transform="translate(690,546)" d="m0 0 4 2-14 12-9 6-5 5-6 5-5 1-2 2h-3l-2 5-4 2h-2l-4 5-6 3-1-2-4 3-6 2-1 2h-3v-2l-12 4-7 3-4-2 4-4 9-5 5-3 12-4 9-5h3v-2l9-6 6-1v-2l8-4h4v-2l11-6 5-5 7-4z" fill="#FBA21B"/>
<path transform="translate(879,433)" d="m0 0h8l3 3-4 4-25 13-19 10-18 1 1-4 14-10 1-3 24-9z" fill="#FDFCFC"/>
<path transform="translate(1021,665)" d="m0 0h2l-3 12-3 8-3 15-3 10-3 9-4 14-3 9-2 8-4 13 1 5 2 1-1 2 10 3v1l-8-1-13-5-1-3 12-36 11-31z" fill="#9A0F2E"/>
<path transform="translate(822,433)" d="m0 0 2 1-6 9-11 11-16 12-13 10-16 12-13 10-27 21-21 14-17 10-10 6-2-1 19-12 12-8 11-8 28-22 17-13 19-14 13-10 13-11 15-14z" fill="#9B1030"/>
<path transform="translate(543,1057)" d="m0 0 6 2 8 7 9 10 9 11 7 8v2h2l7 9 11 9 5 7 2 10v3l-1 2-11-15-10-12-9-11-13-15-7-8-9-10-6-8z" fill="#FBA01C"/>
<path transform="translate(1175,337)" d="m0 0 1 2-4 11-2 7-2 2-3 7-13 23-8 16-2 8-3 7-1 5-2 2h-7l-2-2 15-29 10-18 13-24z" fill="#990D2E"/>
<path transform="translate(281,848)" d="m0 0 6 1 24 15 23 14 22 14 20 14-1 2-21-14-16-8-10-6-9-5-20-12-12-8-4-4-2-1z" fill="#9C1131"/>
<path transform="translate(226,693)" d="m0 0h15v1l-9 2-3 2 1 117-4 1z" fill="#CD5633"/>
<path transform="translate(797,464)" d="m0 0 4 1v2l-18 10-14 10-10 7-13 11-14 12-6 5-2-1v-2l-2-1 15-12 13-10 17-13 11-8 10-8h5z" fill="#FB991C"/>
<path transform="translate(517,1031)" d="m0 0 4 2 7 7 7 8 9 10 9 11 9 10 13 15 9 11 6 7-1 2-3-3v-2h-2l-9-11-8-9-5-5-9-10-4-5v-2h-2l-7-8-13-15v-2h-2l-2-5-3-1-3-3z" fill="#9D1231"/>
<path transform="translate(1117,1344)" d="m0 0 3 1-13 5h-3l-2 5-9 2-13 2h-7l-29 5h-19v-1l35-4 27-6 22-6z" fill="#FEF8E6"/>
<path transform="translate(713,535)" d="m0 0 1 3-8 17-5 5-7 5h-3l2-5 12-16z" fill="#FEF6DD"/>
<path transform="translate(772,1292)" d="m0 0 4 2 19 14 2 2-3 1h-9l-5-5-4-5-4-7z" fill="#FEFBF2"/>
<path transform="translate(804,601)" d="m0 0h1l3 13 2 6 2 10 6 16 9 17 5 6-1 2-7-9-11-21-7-21-2-10z" fill="#C24439"/>
<path transform="translate(228,815)" d="m0 0 6 1 25 12 1 2-11-1-18-10-3-2z" fill="#FB9F1B"/>
<path transform="translate(718,517)" d="m0 0m-1 1m-2 1 2 1-5 6-19 12-14 8-5 3-2-1 19-12 12-8 11-8z" fill="#A01634"/>
<path transform="translate(785,475)" d="m0 0v3l-9 7-7 4-8 6-7 6-7 5-2-1 11-10 14-10z" fill="#FEF6DD"/>
<path transform="translate(1240,1231)" d="m0 0 1 4-4 15-5 5-14 21-3 2 2-4 15-24z" fill="#FEF8E5"/>
<path transform="translate(672,763)" d="m0 0 3 1 10 16 3 4-1 2-5-1-2-1-4-12-5-4z" fill="#FB9E1B"/>
<path transform="translate(513,1024)" d="m0 0 7 6 7 7 10 8 3 4v4h2l1 4-6-5-7-8-11-12-6-6z" fill="#FA971C"/>
<path transform="translate(1232,1254)" d="m0 0 1 2-2 5-2 1-3 8-3 5-10 7-5 4 2-4 8-7 10-16z" fill="#FEFBF1"/>
<path transform="translate(817,540)" d="m0 0 1 3-5 13-4 14-3 9-1 8h-1v-10l4-15 8-21z" fill="#C14339"/>
<path transform="translate(746,1264)" d="m0 0 4 2 3 3v2h2l2 3v3l4 2 3 3-1 2-11-9-7-7-2-1v-2z" fill="#ED6625"/>
<path transform="translate(227,817)" d="m0 0 4 1 3 2-2 7-2-1-1 2-1 21h-1z" fill="#980C2E"/>
<path transform="translate(966,761)" d="m0 0 11 3 9 4-2 2-9-1-10-6z" fill="#FEFAF0"/>
<path transform="translate(822,433)" d="m0 0 2 1-6 9-7 7-4-2 5-5z" fill="#AF273D"/>
<path transform="translate(938,749)" d="m0 0 9 3 13 6-1 2-6-1-16-8z" fill="#FEFAF0"/>
<path transform="translate(797,464)" d="m0 0 4 1v2l-13 7-3-1h2v-5l1-1h5z" fill="#F66F21"/>
<path transform="translate(785,469)" d="m0 0h2v6l-10 5-3 1v-3z" fill="#F98D1D"/>
<path transform="translate(1117,446)" d="m0 0 7 1 1 2-5 2-4 1-8 16-1-3z" fill="#9F1433"/>
<path transform="translate(226,693)" d="m0 0h15v1l-9 2-3 2-1 20h-1z" fill="#B42D41"/>
<path transform="translate(1353,697)" d="m0 0 16 2 3 2-6 1h-9l-3-1z" fill="#FEFAEF"/>
<path transform="translate(664,590)" d="m0 0 1 2 2 1h-2l-1 6-3 6h-2v2l2 1-4-1 3-10z" fill="#FCA31B"/>
<path transform="translate(354,892)" d="m0 0 5 2 17 12-1 2-21-14z" fill="#A21835"/>
<path transform="translate(570,1092)" d="m0 0 4 1 11 13 5 6-1 2-3-3v-2h-2l-9-11z" fill="#A11634"/>
<path transform="translate(662,1034)" d="m0 0 5 1 3 7-4-1h-3l-2-1z" fill="#F66921"/>
<path transform="translate(859,487)" d="m0 0 2 1-13 12h-2l-1 3h-2l2-4 11-10z" fill="#C24439"/>
<path transform="translate(1116,996)" d="m0 0 10 4 2 3-3 1-10-5z" fill="#FEFBF1"/>
<path transform="translate(1094,441)" d="m0 0 9 1 11 3-1 2-18-4z" fill="#F87E1F"/>
<path transform="translate(731,789)" d="m0 0 5 1 2 2v4l-6-1-1-1z" fill="#FFFCF5"/>
<path transform="translate(1021,665)" d="m0 0h2l-3 12-4 6-1-2z" fill="#A01633"/>
<path transform="translate(810,877)" d="m0 0 5 1v5l-6-1-1-3z" fill="#F67021"/>
<path transform="translate(735,1256)" d="m0 0 7 6 2 3h-3l-7-7z" fill="#F87C1F"/>
<path transform="translate(1117,446)" d="m0 0 7 1 1 2-5 2-2 1v-3l-2-1z" fill="#A31C2F"/>
</svg>
